:SAMPLES-PER-SECOND 30
:FULLY-SPECIFIED
:DEGREES
462
root  -51.4548 31.1489 -59.2806 -4.55226 -68.6367 6.41329
RightUpLeg  -28.945 -5.73013 -5.66715
RightLeg  73.4876 -1.90871 -5.38791
RightFoot  -9.34885 0.0591055 1.10049
RightToes  -27.7311 -0.128613 -0.235892
Spine  7.58096 1.09704 -0.649809
Spine1  13.9739 3.83411 -4.26348
HEad  40.2227 -12.7967 5.52788
LeftShoulder1  0 -2.42657e-020 -4.95415e-022
LeftArm  -15.5697 20.6354 -80.7856
LeftForeArm  35.2778 -45.5682 -10.3689
LeftHand  -0.691218 -4.75083 16.2005
RightShoulder  0 2.42657e-020 1.07489e-018
RightArm  -53.3076 2.91384 73.1574
RightForeArm  24.7973 25.6103 4.84384
RightHand  0.897012 22.2812 4.92411
LeftUpLeg  -17.564 -9.64228 -9.75386
LeftLeg  47.791 -2.79105 -2.70941
LeftFoot  -20.0045 0.223919 1.26956
LeftToes  1.9604 8.72033e-007 1.17809e-007
463
root  -53.2701 32.137 -58.823 -0.493264 -69.9535 2.79798
RightUpLeg  -31.1458 -6.47378 -3.36026
RightLeg  60.9418 -5.479 -8.53273
RightFoot  -9.58453 0.116721 1.76986
RightToes  -24.0285 -0.105036 -0.208397
Spine  6.78344 0.327291 -0.393212
Spine1  12.7376 1.86367 -3.36691
HEad  41.13 -8.37632 4.54886
LeftShoulder1  0 -2.42657e-020 -4.95415e-022
LeftArm  -16.202 22.0302 -80.6566
LeftForeArm  34.3633 -45.3777 -10.2998
LeftHand  -0.619027 -4.57569 15.0538
RightShoulder  0 2.42657e-020 1.07489e-018
RightArm  -47.7299 0.305039 73.1197
RightForeArm  19.6983 32.4744 6.44187
RightHand  1.01809 22.9792 5.37713
LeftUpLeg  -11.621 -9.34107 -8.35544
LeftLeg  40.7573 -2.54601 -1.92793
LeftFoot  -16.3857 0.122989 0.854212
LeftToes  -1.57463 8.72033e-007 1.17809e-007
464
root  -55.0803 33.0892 -58.3994 3.85501 -70.5206 -0.827632
RightUpLeg  -30.6902 -6.63225 -1.26046
RightLeg  44.247 -8.02333 -6.84004
RightFoot  -7.95792 0.0768018 1.48179
RightToes  -22.6274 -0.0965847 -0.197604
Spine  5.96408 -0.695559 0.149468
Spine1  11.4407 -0.649347 -1.70153
HEad  41.5788 -4.60767 2.22089
LeftShoulder1  0 -2.42657e-020 -4.95415e-022
LeftArm  -17.4478 23.4042 -81.728
LeftForeArm  34.7027 -44.2081 -9.88096
LeftHand  -0.630154 -4.86552 14.4008
RightShoulder  0 2.42657e-020 1.07489e-018
RightArm  -43.5642 -0.701072 71.7179
RightForeArm  19.5472 40.1203 8.55157
RightHand  0.593454 23.1708 3.26512
LeftUpLeg  -6.75227 -9.03259 -7.01244
LeftLeg  34.7962 -2.50838 -1.51762
LeftFoot  -10.9487 0.0520016 0.542592
LeftToes  -3.34144 8.72033e-007 1.17809e-007
465
root  -56.875 33.7086 -57.943 5.25222 -70.5463 -1.26301
RightUpLeg  -29.4522 -5.23679 -1.17944
RightLeg  27.9928 -4.8417 -2.18938
RightFoot  -3.20234 -0.00298942 0.270663
RightToes  -29.7816 -0.14242 -0.250445
Spine  5.37777 -1.50682 0.436054
Spine1  10.3569 -2.46145 -0.999679
HEad  41.6916 -1.07862 0.331052
LeftShoulder1  0 -2.42657e-020 -4.95415e-022
LeftArm  -17.2563 24.8148 -81.8541
LeftForeArm  35.0269 -44.8172 -10.0965
LeftHand  -0.621875 -4.64055 14.9093
RightShoulder  0 2.42657e-020 1.07489e-018
RightArm  -43.3352 0.973313 70.1339
RightForeArm  21.9641 45.6765 10.4188
RightHand  0.196289 23.1982 1.32667
LeftUpLeg  -3.54438 -9.09044 -6.78088
LeftLeg  31.5906 -2.57368 -1.36643
LeftFoot  -5.49888 0.0135633 0.282419
LeftToes  -6.608 8.72033e-007 1.17809e-007
466
root  -58.6375 33.9591 -57.4827 6.12987 -70.5052 -1.25037
RightUpLeg  -28.9575 -0.894642 -2.81048
RightLeg  17.7272 -1.80862 -0.452535
RightFoot  -3.74387 -0.00981644 0.0772112
RightToes  -33.3825 -0.167893 -0.274774
Spine  4.98713 -1.86224 0.567486
Spine1  9.60739 -3.18209 -0.796721
HEad  41.4292 2.07071 -0.530543
LeftShoulder1  0 -2.42657e-020 -4.95415e-022
LeftArm  -14.8883 25.4849 -80.845
LeftForeArm  34.0358 -46.4448 -10.6979
LeftHand  -0.642223 -4.58533 15.5911
RightShoulder  0 2.42657e-020 1.07489e-018
RightArm  -47.5956 5.6832 68.3457
RightForeArm  22.8056 46.2771 10.6434
RightHand  1.10713 24.6511 5.43512
LeftUpLeg  -1.99809 -8.57874 -6.50432
LeftLeg  31.6595 -3.39966 -1.80823
LeftFoot  -1.78894 0.0020776 0.133062
LeftToes  -8.90501 8.72033e-007 1.17809e-007
467
root  -60.4145 33.8366 -57.0142 6.75948 -69.6585 -1.75418
RightUpLeg  -28.6939 3.585 -5.09122
RightLeg  13.6797 -2.58194 -0.453837
RightFoot  -3.47381 -0.00820669 0.106938
RightToes  -32.8831 -0.16427 -0.271496
Spine  4.85885 -2.07428 0.821837
Spine1  9.3634 -3.56663 -0.439061
HEad  40.9541 4.8143 -1.49303
LeftShoulder1  0 -2.42657e-020 -4.95415e-022
LeftArm  -11.753 24.8277 -79.894
LeftForeArm  33.3553 -47.1915 -10.9866
LeftHand  -0.592902 -4.24035 15.5676
RightShoulder  0 2.42657e-020 1.07489e-018
RightArm  -48.4531 10.8926 64.5462
RightForeArm  22.8417 44.8178 10.1065
RightHand  1.58935 25.2411 7.4616
LeftUpLeg  -1.56879 -8.29535 -6.01612
LeftLeg  35.5074 -4.39196 -2.72568
LeftFoot  -0.30032 0.000141385 0.0539376
LeftToes  -6.91158 8.72033e-007 1.17809e-007
468
root  -62.243 33.3289 -56.5945 7.67904 -67.9665 -3.11734
RightUpLeg  -29.0878 5.39914 -6.28078
RightLeg  15.8025 -3.55398 -0.761897
RightFoot  -4.78411 -0.00527928 0.251207
RightToes  -32.2762 -0.159905 -0.267471
Spine  4.91335 -2.10259 1.29456
Spine1  9.49056 -3.55506 0.276717
HEad  39.838 7.31853 -2.64543
LeftShoulder1  0 -2.42657e-020 -4.95415e-022
LeftArm  -8.90113 23.4214 -79.4836
LeftForeArm  34.638 -47.0837 -10.9435
LeftHand  -0.628158 -4.58183 15.2577
RightShoulder  0 2.42657e-020 1.07489e-018
RightArm  -48.8511 15.2746 60.0707
RightForeArm  20.1403 43.2419 9.55704
RightHand  2.03038 25.0774 9.48333
LeftUpLeg  -1.91992 -8.23565 -4.9714
LeftLeg  42.196 -4.98112 -3.95862
LeftFoot  -0.39515 0.000313547 0.0909169
LeftToes  -3.63048 8.72033e-007 1.17809e-007
469
root  -64.157 32.4731 -56.3133 10.2741 -65.6858 -6.77156
RightUpLeg  -29.0244 2.486 -4.307
RightLeg  20.7973 -3.57622 -1.1016
RightFoot  -0.150765 -0.000537249 -0.0309389
RightToes  -41.9037 -0.233866 -0.325621
Spine  5.23146 -2.00485 1.92354
Spine1  10.1748 -3.15925 1.01458
HEad  37.8371 10.2671 -2.7486
LeftShoulder1  0 -2.42657e-020 -4.95415e-022
LeftArm  -6.76403 22.3158 -79.0671
LeftForeArm  36.2429 -48.0219 -11.3147
LeftHand  -0.682591 -4.87623 15.58
RightShoulder  0 2.42657e-020 1.07489e-018
RightArm  -53.9808 19.2325 57.0921
RightForeArm  8.63774 41.9846 9.1312
RightHand  2.88363 23.8888 13.9441
LeftUpLeg  -2.7623 -7.22408 -2.14554
LeftLeg  50.8707 -5.11291 -5.50268
LeftFoot  -1.15677 0.0023454 0.232321
LeftToes  -5.087 8.72033e-007 1.17809e-007
470
root  -65.8777 31.4233 -56.0951 13.154 -64.0309 -11.1807
RightUpLeg  -33.2111 -7.43812 0.172725
RightLeg  34.0328 4.2553 2.47469
RightFoot  5.98962 -0.00985885 0.565928
RightToes  -45.086 -0.260334 -0.342013
Spine  5.6773 -1.68563 2.80995
Spine1  11.1258 -2.32927 2.12067
HEad  36.7608 14.3182 -3.76593
LeftShoulder1  0 -2.42657e-020 -4.95415e-022
LeftArm  -6.49737 21.35 -80.0648
LeftForeArm  36.0282 -48.3339 -11.4421
LeftHand  -0.687479 -5.05498 15.1303
RightShoulder  0 2.42657e-020 1.07489e-018
RightArm  -54.7126 21.1822 54.7495
RightForeArm  12.3034 46.0149 10.5383
RightHand  3.04202 23.4838 14.9339
LeftUpLeg  -4.67056 -5.77877 1.02098
LeftLeg  61.4313 -3.79698 -6.00242
LeftFoot  -0.483351 0.000888936 0.210735
LeftToes  -12.9101 8.72033e-007 1.17809e-007
471
root  -67.47 30.6865 -55.7926 14.9051 -62.6001 -14.1668
RightUpLeg  -35.1092 -14.5542 2.95994
RightLeg  43.9662 7.72501 6.47206
RightFoot  1.02524 0.000980489 0.267781
RightToes  -43.4865 -0.246917 -0.341221
Spine  6.42701 -1.3696 3.41273
Spine1  12.6463 -1.79817 3.10022
HEad  34.9602 17.2796 -4.47338
LeftShoulder1  0 -2.42657e-020 -4.95415e-022
LeftArm  -9.26813 19.7413 -82.5361
LeftForeArm  36.7009 -47.1323 -10.9606
LeftHand  -0.678397 -6.07633 12.3733
RightShoulder  0 2.42657e-020 1.07489e-018
RightArm  -52.374 19.793 55.801
RightForeArm  16.8566 58.5974 16.85
RightHand  2.76814 23.6172 13.5581
LeftUpLeg  -7.76195 -4.08712 3.26639
LeftLeg  70.8207 -1.61035 -3.82976
LeftFoot  0.626847 -0.000752432 0.13754
LeftToes  -19.7613 8.72033e-007 1.17809e-007
472
root  -68.9576 30.3849 -55.4946 15.6497 -59.676 -15.2414
RightUpLeg  -34.1598 -16.7953 3.96932
RightLeg  48.0729 6.6072 6.38867
RightFoot  -3.84805 -0.0294003 -0.497712
RightToes  -43.5726 -0.247633 -0.333756
Spine  6.75566 -1.21446 3.78105
Spine1  13.376 -1.42942 3.57077
HEad  34.4027 19.2393 -5.04832
LeftShoulder1  0 -2.42657e-020 -4.95415e-022
LeftArm  -11.7269 20.0319 -84.5852
LeftForeArm  34.7487 -46.9204 -10.8799
LeftHand  -0.552433 -5.79689 10.5209
RightShoulder  0 2.42657e-020 1.07489e-018
RightArm  -47.008 14.6802 59.2785
RightForeArm  41.6923 73.4501 36.7256
RightHand  1.60261 23.7752 7.97452
LeftUpLeg  -12.4542 -4.37973 4.95493
LeftLeg  77.4863 -1.35711 -4.68555
LeftFoot  -3.12838 0.0127958 0.468577
LeftToes  -19.3461 8.72033e-007 1.17809e-007
473
root  -70.161 30.5916 -55.0316 16.4028 -56.2866 -15.858
RightUpLeg  -31.3055 -18.2603 4.5767
RightLeg  47.3887 5.44976 5.14979
RightFoot  -6.04712 -0.0536593 -0.638385
RightToes  -42.9397 -0.242383 -0.331119
Spine  7.06849 -0.773139 4.05219
Spine1  14.072 -0.505954 3.92843
HEad  34.6947 19.7077 -5.29026
LeftShoulder1  0 -2.42657e-020 -4.95415e-022
LeftArm  -13.3186 20.2324 -86.7255
LeftForeArm  31.6599 -46.3528 -10.6646
LeftHand  -0.480771 -5.00127 10.6198
RightShoulder  0 2.42657e-020 1.07489e-018
RightArm  -39.2031 8.35691 63.04
RightForeArm  107.496 79.8835 91.2951
RightHand  -0.230327 24.2711 -0.701272
LeftUpLeg  -17.8172 -5.1205 5.67757
LeftLeg  79.9318 -1.40978 -5.7695
LeftFoot  -4.55287 0.0282087 0.709595
LeftToes  -20.5599 8.72033e-007 1.17809e-007
